<svg xmlns="http://www.w3.org/2000/svg" viewBox="0 0 24 24" width="48" height="48">
  <path fill="#FF9800" d="M19.5,9.5L18,9C18,8.5 18,8.2 17.6,7.7L15,4H13V6H14.5L16.2,8.1C15.8,8 15.4,8 15,8H13L10.8,3.5C10.4,2.6 9.5,2 8.5,2H6A1,1 0 0,0 5,3V5A1,1 0 0,0 6,6H8L10,10.1L8.5,10C7.1,10 6,11.1 6,12.5V13A2.5,2.5 0 0,0 3.5,15.5A2.5,2.5 0 0,0 6,18A2.5,2.5 0 0,0 8.5,15.5H15.5A2.5,2.5 0 0,0 18,18A2.5,2.5 0 0,0 20.5,15.5C20.5,14.6 20,13.8 19.3,13.4L20.8,10.4L19.5,9.5M6,16.5A1,1 0 0,1 5,15.5A1,1 0 0,1 6,14.5A1,1 0 0,1 7,15.5A1,1 0 0,1 6,16.5M18,16.5A1,1 0 0,1 17,15.5A1,1 0 0,1 18,14.5A1,1 0 0,1 19,15.5A1,1 0 0,1 18,16.5Z"/>
</svg>
